<svg id="Layer_1" data-name="Layer 1" xmlns="http://www.w3.org/2000/svg" viewBox="0 0 21.23 39.82"><defs><style>.cls-1{fill:#ddb54b;}</style></defs><title>leftLine_ver1</title><path class="cls-1" d="M30.15-8.3a1,1,0,0,1-.29.71l-18.8,18.8a1,1,0,1,1-1.52-1.3l.11-.11L28.45-9a1,1,0,0,1,1.41,0,1,1,0,0,1,.3.72Z" transform="translate(-9.3 9.3)"/><path class="cls-1" d="M30.53,29.52a1,1,0,0,1-1.71.71L10,11.43a1,1,0,0,1,1.3-1.52l.11.11,18.8,18.8A1,1,0,0,1,30.53,29.52Z" transform="translate(-9.3 9.3)"/></svg>