<svg id="Layer_1" data-name="Layer 1" xmlns="http://www.w3.org/2000/svg" viewBox="0 0 397.67 247.6"><defs><style>.cls-1{fill:#222127;}</style></defs><title>mobile_m_ver1</title><path class="cls-1" d="M1027.08,1749.21H651.92a11.25,11.25,0,0,1,0-22.51h375.16a11.25,11.25,0,0,1,0,22.51Z" transform="translate(-640.67 -1726.7)"/><path class="cls-1" d="M1027.08,1861.75H651.92a11.25,11.25,0,0,1,0-22.51h375.16a11.25,11.25,0,1,1,0,22.51Z" transform="translate(-640.67 -1726.7)"/><path class="cls-1" d="M1027.08,1974.3H651.92a11.25,11.25,0,0,1,0-22.51h375.16a11.25,11.25,0,0,1,0,22.51Z" transform="translate(-640.67 -1726.7)"/></svg>