<svg id="Layer_1" data-name="Layer 1" xmlns="http://www.w3.org/2000/svg" viewBox="0 0 847.27 847.27"><defs><style>.cls-1{fill:#231f20;opacity:0.48;}.cls-2{fill:#ddb54b;}</style></defs><title>play_ver1</title><circle class="cls-1" cx="423.64" cy="423.63" r="408.78"/><path class="cls-2" d="M989.36,2143.7c-233.59,0-423.63-190-423.63-423.63s190-423.64,423.63-423.64,423.64,190,423.64,423.64S1223,2143.7,989.36,2143.7Zm0-815.79c-216.24,0-392.16,175.92-392.16,392.16s175.92,392.16,392.16,392.16,392.17-175.92,392.17-392.16S1205.6,1327.9,989.36,1327.9Z" transform="translate(-565.73 -1296.43)"/><path class="cls-2" d="M919.49,1929.65a15.74,15.74,0,0,1-11.13-26.86l181.72-181.71a15.73,15.73,0,0,1,22.25,22.25L930.61,1925A15.69,15.69,0,0,1,919.49,1929.65Z" transform="translate(-565.73 -1296.43)"/><path class="cls-2" d="M1101.2,1745.89a15.69,15.69,0,0,1-11.13-4.61L908.36,1559.57a15.73,15.73,0,1,1,22.25-22.25L1112.33,1719a15.74,15.74,0,0,1-11.13,26.86Z" transform="translate(-565.73 -1296.43)"/></svg>