<svg id="Layer_1" data-name="Layer 1" xmlns="http://www.w3.org/2000/svg" viewBox="0 0 852.27 852.27"><defs><style>.cls-1{fill:#ddb54b;}</style></defs><title>play_true_ver1</title><path class="cls-1" d="M989.36,1293.93c-235,0-426.13,191.16-426.13,426.14S754.39,2146.2,989.36,2146.2,1415.5,1955,1415.5,1720.07,1224.33,1293.93,989.36,1293.93Zm130.08,438.28a18.12,18.12,0,0,1-5.34,12.89L932.38,1926.81A18.23,18.23,0,0,1,906.59,1901l169.85-169.84L906.59,1561.33a18.23,18.23,0,1,1,25.79-25.79l181.72,181.72a18.11,18.11,0,0,1,5.34,12.89c0,.34,0,.68,0,1S1119.44,1731.86,1119.44,1732.21Z" transform="translate(-563.23 -1293.93)"/></svg>