<svg id="Слой_1" data-name="Слой 1" xmlns="http://www.w3.org/2000/svg" viewBox="0 0 202.28 141.57"><defs><style>.cls-1{fill:#222127;}</style></defs><title>youtube_ver2</title><g id="g4167"><path id="path4156" class="cls-1" d="M149.94,79.22s-63.22,0-79.09,4.12a26.14,26.14,0,0,0-17.87,18c-4.12,15.87-4.12,48.73-4.12,48.73s0,33,4.12,48.6a25.74,25.74,0,0,0,17.87,17.87c16,4.25,79.09,4.25,79.09,4.25s63.34,0,79.21-4.12a25.14,25.14,0,0,0,17.74-17.87c4.25-15.74,4.25-48.6,4.25-48.6s.12-33-4.25-48.85A25,25,0,0,0,229.15,83.6C213.28,79.22,149.94,79.22,149.94,79.22ZM129.82,119.7l52.6,30.36-52.6,30.23Z" transform="translate(-48.86 -79.22)"/></g></svg>