<?xml version="1.0" encoding="utf-8"?>
<!-- Generator: Adobe Illustrator 21.0.0, SVG Export Plug-In . SVG Version: 6.00 Build 0)  -->
<svg version="1.1" id="Layer_1" xmlns="http://www.w3.org/2000/svg" xmlns:xlink="http://www.w3.org/1999/xlink" x="0px" y="0px"
	 viewBox="0 0 39.8 21.2" style="enable-background:new 0 0 39.8 21.2;" xml:space="preserve">
<style type="text/css">
	.st0{fill:#DDB54B;}
</style>
<title>downLine_ver1</title>
<path class="st0" d="M1,0.4c0.3,0,0.5,0.1,0.7,0.3l18.8,18.8c0.4,0.4,0.5,1,0.1,1.4c-0.4,0.4-1,0.5-1.4,0.1c0,0-0.1-0.1-0.1-0.1
	L0.3,2.1c-0.4-0.4-0.4-1,0-1.4C0.5,0.5,0.7,0.4,1,0.4L1,0.4z"/>
<path class="st0" d="M38.8,0c0.6,0,1,0.4,1,1c0,0.3-0.1,0.5-0.3,0.7L20.7,20.5c-0.4,0.4-1,0.5-1.4,0.1c-0.4-0.4-0.5-1-0.1-1.4
	c0,0,0.1-0.1,0.1-0.1L38.1,0.3C38.3,0.1,38.6,0,38.8,0z"/>
</svg>
